<mxfile host="app.diagrams.net" modified="2022-08-16T14:35:21.313Z" agent="5.0 (Windows NT 10.0; Win64; x64) AppleWebKit/537.36 (KHTML, like Gecko) Chrome/104.0.0.0 Safari/537.36" etag="hl7W1UrYbRBwGzOA9uDK" version="20.2.3" type="github">
  <diagram id="C5RBs43oDa-KdzZeNtuy" name="Page-1">
    <mxGraphModel dx="476" dy="1896" grid="1" gridSize="10" guides="1" tooltips="1" connect="1" arrows="1" fold="1" page="1" pageScale="1" pageWidth="827" pageHeight="1169" math="0" shadow="0">
      <root>
        <mxCell id="WIyWlLk6GJQsqaUBKTNV-0" />
        <mxCell id="WIyWlLk6GJQsqaUBKTNV-1" parent="WIyWlLk6GJQsqaUBKTNV-0" />
        <mxCell id="SLw4QeTlPAXRg96HDkk2-0" style="edgeStyle=orthogonalEdgeStyle;rounded=0;orthogonalLoop=1;jettySize=auto;html=1;" edge="1" parent="WIyWlLk6GJQsqaUBKTNV-1" source="SLw4QeTlPAXRg96HDkk2-1" target="SLw4QeTlPAXRg96HDkk2-5">
          <mxGeometry relative="1" as="geometry" />
        </mxCell>
        <mxCell id="SLw4QeTlPAXRg96HDkk2-1" value="INICIO" style="rounded=1;whiteSpace=wrap;html=1;arcSize=50;" vertex="1" parent="WIyWlLk6GJQsqaUBKTNV-1">
          <mxGeometry x="1000" y="-1155" width="120" height="50" as="geometry" />
        </mxCell>
        <mxCell id="SLw4QeTlPAXRg96HDkk2-2" style="edgeStyle=orthogonalEdgeStyle;rounded=0;orthogonalLoop=1;jettySize=auto;html=1;" edge="1" parent="WIyWlLk6GJQsqaUBKTNV-1" source="SLw4QeTlPAXRg96HDkk2-3" target="SLw4QeTlPAXRg96HDkk2-7">
          <mxGeometry relative="1" as="geometry" />
        </mxCell>
        <mxCell id="SLw4QeTlPAXRg96HDkk2-3" value="Ingrese el numero" style="shape=document;whiteSpace=wrap;html=1;boundedLbl=1;" vertex="1" parent="WIyWlLk6GJQsqaUBKTNV-1">
          <mxGeometry x="1000" y="-965" width="120" height="80" as="geometry" />
        </mxCell>
        <mxCell id="SLw4QeTlPAXRg96HDkk2-4" style="edgeStyle=orthogonalEdgeStyle;rounded=0;orthogonalLoop=1;jettySize=auto;html=1;" edge="1" parent="WIyWlLk6GJQsqaUBKTNV-1" source="SLw4QeTlPAXRg96HDkk2-5" target="SLw4QeTlPAXRg96HDkk2-3">
          <mxGeometry relative="1" as="geometry" />
        </mxCell>
        <mxCell id="SLw4QeTlPAXRg96HDkk2-5" value="&lt;span style=&quot;color: rgb(0, 0, 0); font-family: Helvetica; font-size: 12px; font-style: normal; font-variant-ligatures: normal; font-variant-caps: normal; font-weight: 400; letter-spacing: normal; orphans: 2; text-align: center; text-indent: 0px; text-transform: none; widows: 2; word-spacing: 0px; -webkit-text-stroke-width: 0px; background-color: rgb(248, 249, 250); text-decoration-thickness: initial; text-decoration-style: initial; text-decoration-color: initial; float: none; display: inline !important;&quot;&gt;int nIn:&lt;/span&gt;&lt;br style=&quot;color: rgb(0, 0, 0); font-family: Helvetica; font-size: 12px; font-style: normal; font-variant-ligatures: normal; font-variant-caps: normal; font-weight: 400; letter-spacing: normal; orphans: 2; text-align: center; text-indent: 0px; text-transform: none; widows: 2; word-spacing: 0px; -webkit-text-stroke-width: 0px; background-color: rgb(248, 249, 250); text-decoration-thickness: initial; text-decoration-style: initial; text-decoration-color: initial;&quot;&gt;&lt;span style=&quot;color: rgb(0, 0, 0); font-family: Helvetica; font-size: 12px; font-style: normal; font-variant-ligatures: normal; font-variant-caps: normal; font-weight: 400; letter-spacing: normal; orphans: 2; text-align: center; text-indent: 0px; text-transform: none; widows: 2; word-spacing: 0px; -webkit-text-stroke-width: 0px; background-color: rgb(248, 249, 250); text-decoration-thickness: initial; text-decoration-style: initial; text-decoration-color: initial; float: none; display: inline !important;&quot;&gt;int i;&lt;/span&gt;&lt;span style=&quot;color: rgb(0, 0, 0); font-family: Helvetica; font-size: 12px; font-style: normal; font-variant-ligatures: normal; font-variant-caps: normal; font-weight: 400; letter-spacing: normal; orphans: 2; text-align: center; text-indent: 0px; text-transform: none; widows: 2; word-spacing: 0px; -webkit-text-stroke-width: 0px; background-color: rgb(248, 249, 250); text-decoration-thickness: initial; text-decoration-style: initial; text-decoration-color: initial; float: none; display: inline !important;&quot;&gt;&lt;br&gt;int j;&lt;br&gt;int x;&lt;br&gt;bool primo:&lt;br&gt;&lt;/span&gt;" style="rounded=0;whiteSpace=wrap;html=1;" vertex="1" parent="WIyWlLk6GJQsqaUBKTNV-1">
          <mxGeometry x="1000" y="-1065" width="120" height="70" as="geometry" />
        </mxCell>
        <mxCell id="SLw4QeTlPAXRg96HDkk2-6" style="edgeStyle=orthogonalEdgeStyle;rounded=0;orthogonalLoop=1;jettySize=auto;html=1;entryX=0.5;entryY=0;entryDx=0;entryDy=0;" edge="1" parent="WIyWlLk6GJQsqaUBKTNV-1" source="SLw4QeTlPAXRg96HDkk2-7" target="SLw4QeTlPAXRg96HDkk2-10">
          <mxGeometry relative="1" as="geometry">
            <mxPoint x="1060" y="-734.9999999999998" as="targetPoint" />
          </mxGeometry>
        </mxCell>
        <mxCell id="SLw4QeTlPAXRg96HDkk2-7" value="nIn" style="shape=parallelogram;perimeter=parallelogramPerimeter;whiteSpace=wrap;html=1;fixedSize=1;" vertex="1" parent="WIyWlLk6GJQsqaUBKTNV-1">
          <mxGeometry x="1000" y="-855" width="120" height="60" as="geometry" />
        </mxCell>
        <mxCell id="SLw4QeTlPAXRg96HDkk2-8" value="V" style="edgeStyle=orthogonalEdgeStyle;rounded=0;orthogonalLoop=1;jettySize=auto;html=1;" edge="1" parent="WIyWlLk6GJQsqaUBKTNV-1" source="SLw4QeTlPAXRg96HDkk2-10" target="SLw4QeTlPAXRg96HDkk2-12">
          <mxGeometry relative="1" as="geometry" />
        </mxCell>
        <mxCell id="SLw4QeTlPAXRg96HDkk2-9" value="F" style="edgeStyle=orthogonalEdgeStyle;rounded=0;orthogonalLoop=1;jettySize=auto;html=1;entryX=0;entryY=0.5;entryDx=0;entryDy=0;" edge="1" parent="WIyWlLk6GJQsqaUBKTNV-1" source="SLw4QeTlPAXRg96HDkk2-10" target="SLw4QeTlPAXRg96HDkk2-45">
          <mxGeometry relative="1" as="geometry">
            <Array as="points">
              <mxPoint x="920" y="-690" />
              <mxPoint x="920" y="195" />
            </Array>
          </mxGeometry>
        </mxCell>
        <mxCell id="SLw4QeTlPAXRg96HDkk2-10" value="nIn &amp;gt; 1" style="rhombus;whiteSpace=wrap;html=1;" vertex="1" parent="WIyWlLk6GJQsqaUBKTNV-1">
          <mxGeometry x="1020" y="-730" width="80" height="80" as="geometry" />
        </mxCell>
        <mxCell id="SLw4QeTlPAXRg96HDkk2-11" style="edgeStyle=orthogonalEdgeStyle;rounded=0;orthogonalLoop=1;jettySize=auto;html=1;entryX=0.5;entryY=0;entryDx=0;entryDy=0;" edge="1" parent="WIyWlLk6GJQsqaUBKTNV-1" source="SLw4QeTlPAXRg96HDkk2-12" target="SLw4QeTlPAXRg96HDkk2-14">
          <mxGeometry relative="1" as="geometry">
            <mxPoint x="1390" y="-560" as="targetPoint" />
          </mxGeometry>
        </mxCell>
        <mxCell id="SLw4QeTlPAXRg96HDkk2-12" value="i = 2;&lt;br&gt;x = 0;" style="whiteSpace=wrap;html=1;" vertex="1" parent="WIyWlLk6GJQsqaUBKTNV-1">
          <mxGeometry x="1160" y="-720" width="120" height="60" as="geometry" />
        </mxCell>
        <mxCell id="SLw4QeTlPAXRg96HDkk2-13" style="edgeStyle=orthogonalEdgeStyle;rounded=0;orthogonalLoop=1;jettySize=auto;html=1;entryX=0.5;entryY=0;entryDx=0;entryDy=0;" edge="1" parent="WIyWlLk6GJQsqaUBKTNV-1" source="SLw4QeTlPAXRg96HDkk2-14" target="SLw4QeTlPAXRg96HDkk2-17">
          <mxGeometry relative="1" as="geometry" />
        </mxCell>
        <mxCell id="SLw4QeTlPAXRg96HDkk2-14" value="" style="ellipse;whiteSpace=wrap;html=1;aspect=fixed;" vertex="1" parent="WIyWlLk6GJQsqaUBKTNV-1">
          <mxGeometry x="1196" y="-565" width="50" height="50" as="geometry" />
        </mxCell>
        <mxCell id="SLw4QeTlPAXRg96HDkk2-15" value="V" style="edgeStyle=orthogonalEdgeStyle;rounded=0;orthogonalLoop=1;jettySize=auto;html=1;" edge="1" parent="WIyWlLk6GJQsqaUBKTNV-1" source="SLw4QeTlPAXRg96HDkk2-17" target="SLw4QeTlPAXRg96HDkk2-21">
          <mxGeometry relative="1" as="geometry" />
        </mxCell>
        <mxCell id="SLw4QeTlPAXRg96HDkk2-16" value="F" style="edgeStyle=orthogonalEdgeStyle;rounded=0;orthogonalLoop=1;jettySize=auto;html=1;entryX=0.5;entryY=0;entryDx=0;entryDy=0;" edge="1" parent="WIyWlLk6GJQsqaUBKTNV-1" source="SLw4QeTlPAXRg96HDkk2-17" target="SLw4QeTlPAXRg96HDkk2-45">
          <mxGeometry relative="1" as="geometry" />
        </mxCell>
        <mxCell id="SLw4QeTlPAXRg96HDkk2-17" value="x &amp;lt; nIn" style="rhombus;whiteSpace=wrap;html=1;" vertex="1" parent="WIyWlLk6GJQsqaUBKTNV-1">
          <mxGeometry x="1181" y="-465" width="80" height="80" as="geometry" />
        </mxCell>
        <mxCell id="SLw4QeTlPAXRg96HDkk2-18" style="edgeStyle=orthogonalEdgeStyle;rounded=0;orthogonalLoop=1;jettySize=auto;html=1;entryX=1;entryY=0.5;entryDx=0;entryDy=0;" edge="1" parent="WIyWlLk6GJQsqaUBKTNV-1" source="SLw4QeTlPAXRg96HDkk2-19" target="SLw4QeTlPAXRg96HDkk2-14">
          <mxGeometry relative="1" as="geometry" />
        </mxCell>
        <mxCell id="SLw4QeTlPAXRg96HDkk2-19" value="i++;" style="rounded=0;whiteSpace=wrap;html=1;" vertex="1" parent="WIyWlLk6GJQsqaUBKTNV-1">
          <mxGeometry x="1346" y="-570" width="120" height="60" as="geometry" />
        </mxCell>
        <mxCell id="SLw4QeTlPAXRg96HDkk2-20" style="edgeStyle=orthogonalEdgeStyle;rounded=0;orthogonalLoop=1;jettySize=auto;html=1;entryX=0.5;entryY=0;entryDx=0;entryDy=0;" edge="1" parent="WIyWlLk6GJQsqaUBKTNV-1" source="SLw4QeTlPAXRg96HDkk2-21" target="SLw4QeTlPAXRg96HDkk2-26">
          <mxGeometry relative="1" as="geometry" />
        </mxCell>
        <mxCell id="SLw4QeTlPAXRg96HDkk2-21" value="primo = true;&lt;br&gt;j = i -1;" style="whiteSpace=wrap;html=1;" vertex="1" parent="WIyWlLk6GJQsqaUBKTNV-1">
          <mxGeometry x="1326" y="-375" width="120" height="60" as="geometry" />
        </mxCell>
        <mxCell id="SLw4QeTlPAXRg96HDkk2-22" value="V" style="edgeStyle=orthogonalEdgeStyle;rounded=0;orthogonalLoop=1;jettySize=auto;html=1;entryX=0.5;entryY=0;entryDx=0;entryDy=0;" edge="1" parent="WIyWlLk6GJQsqaUBKTNV-1" source="SLw4QeTlPAXRg96HDkk2-24" target="SLw4QeTlPAXRg96HDkk2-31">
          <mxGeometry relative="1" as="geometry">
            <mxPoint x="1526" y="-15" as="targetPoint" />
          </mxGeometry>
        </mxCell>
        <mxCell id="SLw4QeTlPAXRg96HDkk2-23" value="F" style="edgeStyle=orthogonalEdgeStyle;rounded=0;orthogonalLoop=1;jettySize=auto;html=1;entryX=0.5;entryY=0;entryDx=0;entryDy=0;" edge="1" parent="WIyWlLk6GJQsqaUBKTNV-1" source="SLw4QeTlPAXRg96HDkk2-24" target="SLw4QeTlPAXRg96HDkk2-38">
          <mxGeometry relative="1" as="geometry">
            <mxPoint x="1246" y="-15" as="targetPoint" />
          </mxGeometry>
        </mxCell>
        <mxCell id="SLw4QeTlPAXRg96HDkk2-24" value="j &amp;gt; 1" style="rhombus;whiteSpace=wrap;html=1;" vertex="1" parent="WIyWlLk6GJQsqaUBKTNV-1">
          <mxGeometry x="1346" y="-155" width="80" height="80" as="geometry" />
        </mxCell>
        <mxCell id="SLw4QeTlPAXRg96HDkk2-25" style="edgeStyle=orthogonalEdgeStyle;rounded=0;orthogonalLoop=1;jettySize=auto;html=1;entryX=0.5;entryY=0;entryDx=0;entryDy=0;" edge="1" parent="WIyWlLk6GJQsqaUBKTNV-1" source="SLw4QeTlPAXRg96HDkk2-26" target="SLw4QeTlPAXRg96HDkk2-24">
          <mxGeometry relative="1" as="geometry" />
        </mxCell>
        <mxCell id="SLw4QeTlPAXRg96HDkk2-26" value="" style="ellipse;whiteSpace=wrap;html=1;aspect=fixed;" vertex="1" parent="WIyWlLk6GJQsqaUBKTNV-1">
          <mxGeometry x="1361" y="-255" width="50" height="50" as="geometry" />
        </mxCell>
        <mxCell id="SLw4QeTlPAXRg96HDkk2-27" style="edgeStyle=orthogonalEdgeStyle;rounded=0;orthogonalLoop=1;jettySize=auto;html=1;" edge="1" parent="WIyWlLk6GJQsqaUBKTNV-1" source="SLw4QeTlPAXRg96HDkk2-28" target="SLw4QeTlPAXRg96HDkk2-26">
          <mxGeometry relative="1" as="geometry" />
        </mxCell>
        <mxCell id="SLw4QeTlPAXRg96HDkk2-28" value="j--;" style="rounded=0;whiteSpace=wrap;html=1;" vertex="1" parent="WIyWlLk6GJQsqaUBKTNV-1">
          <mxGeometry x="1466" y="-260" width="120" height="60" as="geometry" />
        </mxCell>
        <mxCell id="SLw4QeTlPAXRg96HDkk2-29" value="V" style="edgeStyle=orthogonalEdgeStyle;rounded=0;orthogonalLoop=1;jettySize=auto;html=1;" edge="1" parent="WIyWlLk6GJQsqaUBKTNV-1" source="SLw4QeTlPAXRg96HDkk2-31" target="SLw4QeTlPAXRg96HDkk2-33">
          <mxGeometry relative="1" as="geometry" />
        </mxCell>
        <mxCell id="SLw4QeTlPAXRg96HDkk2-30" value="F" style="edgeStyle=orthogonalEdgeStyle;rounded=0;orthogonalLoop=1;jettySize=auto;html=1;" edge="1" parent="WIyWlLk6GJQsqaUBKTNV-1" source="SLw4QeTlPAXRg96HDkk2-31" target="SLw4QeTlPAXRg96HDkk2-35">
          <mxGeometry relative="1" as="geometry" />
        </mxCell>
        <mxCell id="SLw4QeTlPAXRg96HDkk2-31" value="i % j == 0" style="rhombus;whiteSpace=wrap;html=1;" vertex="1" parent="WIyWlLk6GJQsqaUBKTNV-1">
          <mxGeometry x="1486" y="-15" width="80" height="80" as="geometry" />
        </mxCell>
        <mxCell id="SLw4QeTlPAXRg96HDkk2-32" style="edgeStyle=orthogonalEdgeStyle;rounded=0;orthogonalLoop=1;jettySize=auto;html=1;entryX=1;entryY=0.5;entryDx=0;entryDy=0;" edge="1" parent="WIyWlLk6GJQsqaUBKTNV-1" source="SLw4QeTlPAXRg96HDkk2-33" target="SLw4QeTlPAXRg96HDkk2-35">
          <mxGeometry relative="1" as="geometry">
            <Array as="points">
              <mxPoint x="1636" y="185" />
            </Array>
          </mxGeometry>
        </mxCell>
        <mxCell id="SLw4QeTlPAXRg96HDkk2-33" value="primo = false;" style="whiteSpace=wrap;html=1;" vertex="1" parent="WIyWlLk6GJQsqaUBKTNV-1">
          <mxGeometry x="1586" y="85" width="120" height="60" as="geometry" />
        </mxCell>
        <mxCell id="SLw4QeTlPAXRg96HDkk2-34" style="edgeStyle=orthogonalEdgeStyle;rounded=0;orthogonalLoop=1;jettySize=auto;html=1;" edge="1" parent="WIyWlLk6GJQsqaUBKTNV-1" source="SLw4QeTlPAXRg96HDkk2-35">
          <mxGeometry relative="1" as="geometry">
            <mxPoint x="1586" y="-225" as="targetPoint" />
            <Array as="points">
              <mxPoint x="1526" y="235" />
              <mxPoint x="1766" y="235" />
              <mxPoint x="1766" y="-225" />
              <mxPoint x="1586" y="-225" />
            </Array>
          </mxGeometry>
        </mxCell>
        <mxCell id="SLw4QeTlPAXRg96HDkk2-35" value="" style="ellipse;whiteSpace=wrap;html=1;aspect=fixed;" vertex="1" parent="WIyWlLk6GJQsqaUBKTNV-1">
          <mxGeometry x="1496" y="155" width="60" height="60" as="geometry" />
        </mxCell>
        <mxCell id="SLw4QeTlPAXRg96HDkk2-37" value="F" style="edgeStyle=orthogonalEdgeStyle;rounded=0;orthogonalLoop=1;jettySize=auto;html=1;entryX=0;entryY=0.5;entryDx=0;entryDy=0;" edge="1" parent="WIyWlLk6GJQsqaUBKTNV-1" source="SLw4QeTlPAXRg96HDkk2-38" target="SLw4QeTlPAXRg96HDkk2-42">
          <mxGeometry relative="1" as="geometry">
            <Array as="points">
              <mxPoint x="1166" y="35" />
              <mxPoint x="1166" y="252" />
            </Array>
          </mxGeometry>
        </mxCell>
        <mxCell id="SLw4QeTlPAXRg96HDkk2-52" value="V" style="edgeStyle=orthogonalEdgeStyle;rounded=0;orthogonalLoop=1;jettySize=auto;html=1;" edge="1" parent="WIyWlLk6GJQsqaUBKTNV-1" source="SLw4QeTlPAXRg96HDkk2-38" target="SLw4QeTlPAXRg96HDkk2-51">
          <mxGeometry relative="1" as="geometry" />
        </mxCell>
        <mxCell id="SLw4QeTlPAXRg96HDkk2-38" value="primo" style="rhombus;whiteSpace=wrap;html=1;" vertex="1" parent="WIyWlLk6GJQsqaUBKTNV-1">
          <mxGeometry x="1206" y="-5" width="80" height="80" as="geometry" />
        </mxCell>
        <mxCell id="SLw4QeTlPAXRg96HDkk2-50" style="edgeStyle=orthogonalEdgeStyle;rounded=0;orthogonalLoop=1;jettySize=auto;html=1;" edge="1" parent="WIyWlLk6GJQsqaUBKTNV-1" source="SLw4QeTlPAXRg96HDkk2-40" target="SLw4QeTlPAXRg96HDkk2-42">
          <mxGeometry relative="1" as="geometry" />
        </mxCell>
        <mxCell id="SLw4QeTlPAXRg96HDkk2-40" value="i" style="shape=document;whiteSpace=wrap;html=1;boundedLbl=1;" vertex="1" parent="WIyWlLk6GJQsqaUBKTNV-1">
          <mxGeometry x="1330" y="210" width="120" height="80" as="geometry" />
        </mxCell>
        <mxCell id="SLw4QeTlPAXRg96HDkk2-41" style="edgeStyle=orthogonalEdgeStyle;rounded=0;orthogonalLoop=1;jettySize=auto;html=1;entryX=1;entryY=0.5;entryDx=0;entryDy=0;" edge="1" parent="WIyWlLk6GJQsqaUBKTNV-1" source="SLw4QeTlPAXRg96HDkk2-42" target="SLw4QeTlPAXRg96HDkk2-19">
          <mxGeometry relative="1" as="geometry">
            <Array as="points">
              <mxPoint x="1246" y="305" />
              <mxPoint x="1926" y="305" />
              <mxPoint x="1926" y="-540" />
            </Array>
          </mxGeometry>
        </mxCell>
        <mxCell id="SLw4QeTlPAXRg96HDkk2-42" value="" style="ellipse;whiteSpace=wrap;html=1;aspect=fixed;rotation=-5;" vertex="1" parent="WIyWlLk6GJQsqaUBKTNV-1">
          <mxGeometry x="1221" y="225" width="50" height="50" as="geometry" />
        </mxCell>
        <mxCell id="SLw4QeTlPAXRg96HDkk2-43" value="FIN" style="rounded=1;whiteSpace=wrap;html=1;arcSize=50;" vertex="1" parent="WIyWlLk6GJQsqaUBKTNV-1">
          <mxGeometry x="930" y="290" width="120" height="50" as="geometry" />
        </mxCell>
        <mxCell id="SLw4QeTlPAXRg96HDkk2-44" style="edgeStyle=orthogonalEdgeStyle;rounded=0;orthogonalLoop=1;jettySize=auto;html=1;" edge="1" parent="WIyWlLk6GJQsqaUBKTNV-1" source="SLw4QeTlPAXRg96HDkk2-45" target="SLw4QeTlPAXRg96HDkk2-43">
          <mxGeometry relative="1" as="geometry" />
        </mxCell>
        <mxCell id="SLw4QeTlPAXRg96HDkk2-45" value="" style="ellipse;whiteSpace=wrap;html=1;aspect=fixed;" vertex="1" parent="WIyWlLk6GJQsqaUBKTNV-1">
          <mxGeometry x="965" y="170" width="50" height="50" as="geometry" />
        </mxCell>
        <mxCell id="SLw4QeTlPAXRg96HDkk2-53" style="edgeStyle=orthogonalEdgeStyle;rounded=0;orthogonalLoop=1;jettySize=auto;html=1;" edge="1" parent="WIyWlLk6GJQsqaUBKTNV-1" source="SLw4QeTlPAXRg96HDkk2-51" target="SLw4QeTlPAXRg96HDkk2-40">
          <mxGeometry relative="1" as="geometry" />
        </mxCell>
        <mxCell id="SLw4QeTlPAXRg96HDkk2-51" value="x++;" style="rounded=0;whiteSpace=wrap;html=1;" vertex="1" parent="WIyWlLk6GJQsqaUBKTNV-1">
          <mxGeometry x="1326" y="100" width="120" height="60" as="geometry" />
        </mxCell>
      </root>
    </mxGraphModel>
  </diagram>
</mxfile>
